Coordinates
version=1
nRows=18
nColumns=22
inDegrees=yes

Units are S.I. units (second, meters, Newtons, ...)
If the header above contains a line with 'inDegrees', this indicates whether rotational values are in degrees (yes) or radians (no).

endheader
time	pelvis_tilt	pelvis_list	pelvis_rotation	pelvis_tx	pelvis_ty	pelvis_tz	hip_flexion_r	hip_adduction_r	hip_rotation_r	knee_angle_r	ankle_angle_r	subtalar_angle_r	hip_flexion_l	hip_adduction_l	hip_rotation_l	knee_angle_l	ankle_angle_l	subtalar_angle_l	lumbar_extension	lumbar_bending	lumbar_rotation
      4.14000000	     -0.53199545	      2.42838991	    258.39082324	     -0.24424373	      0.89024106	      0.05430755	     28.89334984	      0.02094991	     -0.45054649	     -6.73230871	      1.46691093	     12.42106106	    -17.18850948	      5.60223786	     23.10049401	    -12.33472449	     14.62090245	    -11.23621211	     -5.34875500	     -6.75180446	    -15.82008798
      4.15000000	     -0.67868455	      2.56427130	    258.84767087	     -0.24763781	      0.88838702	      0.06509782	     29.47531652	      0.33169583	     -0.25275424	     -8.50260118	      0.27228916	     11.03532109	    -17.44760174	      5.30722697	     23.26395410	    -13.05451077	     14.37205078	    -11.01770131	     -5.09457634	     -6.37352905	    -15.72951257
      4.16000000	     -0.92110614	      2.73174739	    259.29126074	     -0.25089367	      0.88683059	      0.07602041	     30.14246875	      0.69269475	     -0.18510638	    -10.52415077	     -1.02297110	      9.64857997	    -17.61043666	      4.94858985	     23.37581451	    -13.90468914	     13.96821622	    -10.74829504	     -4.80712658	     -5.85733388	    -15.59517129
      4.17000000	     -1.25350224	      2.91050489	    259.72958660	     -0.25396585	      0.88562374	      0.08707555	     30.87417314	      1.07675500	     -0.30442027	    -12.76998075	     -2.23530612	      8.45143474	    -17.67781314	      4.54451275	     23.43650179	    -14.91367418	     13.40222092	    -10.43597665	     -4.50822543	     -5.21346644	    -15.42102642
      4.18000000	     -1.66980530	      3.08034262	    260.17243192	     -0.25682837	      0.88481434	      0.09828973	     31.61589091	      1.46106287	     -0.61087270	    -15.16117963	     -3.17422347	      7.59965676	    -17.66138322	      4.10479245	     23.44275138	    -16.08639690	     12.62327524	    -10.07466767	     -4.21575444	     -4.45378035	    -15.22435005
      4.19000000	     -2.16747092	      3.20894015	    260.62971913	     -0.25947460	      0.88446559	      0.10965906	     32.26970124	      1.83654051	     -1.04777883	    -17.56605107	     -3.73262672	      7.21392219	    -17.58650990	      3.63297879	     23.39195007	    -17.42355845	     11.60542051	     -9.66426038	     -3.96649882	     -3.59085046	    -15.01822369
      4.20000000	     -2.73818328	      3.27307055	    261.10571698	     -0.26193955	      0.88462361	      0.12114560	     32.74549891	      2.20925980	     -1.54027490	    -19.84857783	     -3.87665457	      7.29217303	    -17.47116283	      3.13020432	     23.28326655	    -18.91230807	     10.32632570	     -9.18535023	     -3.78766902	     -2.64838869	    -14.81181793
      4.21000000	     -3.36017879	      3.25459948	    261.59594766	     -0.26426536	      0.88533057	      0.13267411	     32.97548132	      2.58707616	     -2.01419402	    -21.89513518	     -3.66778887	      7.75327882	    -17.32843364	      2.60827246	     23.10792786	    -20.52743750	      8.73829613	     -8.59015477	     -3.70229181	     -1.66471624	    -14.60728965
      4.22000000	     -4.02896801	      3.14816354	    262.12920130	     -0.26644556	      0.88659541	      0.14418034	     32.91395982	      2.97263248	     -2.50709531	    -23.61907766	     -3.19591757	      8.38517387	    -17.15096630	      2.05216800	     22.88618737	    -22.26563848	      6.88876197	     -7.96552087	     -3.72131408	     -0.65250808	    -14.43708250
      4.23000000	     -4.70066051	      2.97030347	    262.71584078	     -0.26846835	      0.88836545	      0.15556332	     32.57808726	      3.33751044	     -3.03507174	    -24.98609808	     -2.56895457	      9.00069285	    -16.89671086	      1.48988884	     22.61898324	    -24.12682958	      4.77544680	     -7.30470314	     -3.82591909	      0.33533703	    -14.31187644
      4.24000000	     -5.30794403	      2.73093055	    263.34480234	     -0.27035243	      0.89057943	      0.16669860	     31.98906778	      3.64386801	     -3.55401665	    -25.97770281	     -1.87357376	      9.45658534	    -16.52150798	      0.98095379	     22.28166267	    -26.12037702	      2.37065663	     -6.61714058	     -4.00640058	      1.21558717	    -14.21896456
      4.25000000	     -5.84068290	      2.46128770	    264.05414252	     -0.27202881	      0.89311926	      0.17751152	     31.19983746	      3.86363900	     -4.17009340	    -26.61449999	     -1.19246438	      9.63714693	    -15.96078982	      0.51422703	     21.87463934	    -28.28005196	     -0.23224818	     -6.00785939	     -4.23171492	      1.98399487	    -14.18377286
      4.26000000	     -6.26560933	      2.19360632	    264.85183352	     -0.27349854	      0.89586238	      0.18791618	     30.26271482	      3.97597671	     -4.87387908	    -26.91259349	     -0.56950969	      9.49968749	    -15.14389018	      0.10824485	     21.36582418	    -30.63806070	     -3.01754661	     -5.56625593	     -4.46960320	      2.60417652	    -14.20413234
      4.27000000	     -6.57592592	      1.95496485	    265.74188490	     -0.27477787	      0.89868341	      0.19784161	     29.23513880	      3.98103015	     -5.67256194	    -26.91469388	     -0.01221399	      9.07230689	    -14.01793623	     -0.24502870	     20.72342588	    -33.21681618	     -5.97449344	     -5.34908506	     -4.69569128	      3.06734182	    -14.26290947
      4.28000000	     -6.79624529	      1.77250405	    266.73695684	     -0.27588594	      0.90148014	      0.20724291	     28.16227447	      3.90795172	     -6.56572208	    -26.64869864	      0.42983968	      8.45142434	    -12.53569567	     -0.58959051	     19.92459165	    -36.03143032	     -9.11198094	     -5.38123064	     -4.88757274	      3.40534444	    -14.37819932
      4.29000000	     -6.93254921	      1.67887387	    267.80587344	     -0.27689798	      0.90407546	      0.21612149	     27.14041925	      3.76252742	     -7.59704632	    -26.23221929	      0.91477675	      7.56388249	    -10.65803773	     -0.95285466	     18.87867830	    -39.07285791	    -12.42092131	     -5.77461444	     -5.00987753	      3.62037646	    -14.45373311
      4.30000000	     -7.04806631	      1.65841910	    268.95905795	     -0.27785762	      0.90649051	      0.22447531	     26.15214039	      3.62285649	     -8.68002355	    -25.66417037	      1.33093749	      6.70425172	     -8.43764968	     -1.40947138	     17.67434336	    -42.27205385	    -15.92502176	     -6.42634561	     -5.08735885	      3.78284400	    -14.53983463
      4.31000000	     -7.18356507	      1.70157395	    270.15681330	     -0.27884172	      0.90868127	      0.23238608	     25.22434495	      3.53242856	     -9.82985532	    -25.01587829	      1.68635413	      5.90828336	     -5.94301997	     -2.00732258	     16.32603482	    -45.53721650	    -19.50987625	     -7.17182685	     -5.12259314	      3.93905206	    -14.57543747
